<svg id="visual" viewBox="0 0 900 600" width="900" height="600" xmlns="http://www.w3.org/2000/svg" xmlns:xlink="http://www.w3.org/1999/xlink" version="1.1"><path d="M0 15L25 26C50 37 100 59 150 64.3C200 69.7 250 58.3 300 46.8C350 35.3 400 23.7 450 32.2C500 40.7 550 69.3 600 71.8C650 74.3 700 50.7 750 44.8C800 39 850 51 875 57L900 63L900 0L875 0C850 0 800 0 750 0C700 0 650 0 600 0C550 0 500 0 450 0C400 0 350 0 300 0C250 0 200 0 150 0C100 0 50 0 25 0L0 0Z" fill="#bee3db" stroke-linecap="round" stroke-linejoin="miter"></path></svg>