<svg id="visual" viewBox="0 0 900 600" width="900" height="600" xmlns="http://www.w3.org/2000/svg" xmlns:xlink="http://www.w3.org/1999/xlink" version="1.1"><path d="M0 495L21.5 495.8C43 496.7 86 498.3 128.8 508.2C171.7 518 214.3 536 257.2 541.3C300 546.7 343 539.3 385.8 525.5C428.7 511.7 471.3 491.3 514.2 500.7C557 510 600 549 642.8 565.8C685.7 582.7 728.3 577.3 771.2 568.2C814 559 857 546 878.5 539.5L900 533L900 601L878.5 601C857 601 814 601 771.2 601C728.3 601 685.7 601 642.8 601C600 601 557 601 514.2 601C471.3 601 428.7 601 385.8 601C343 601 300 601 257.2 601C214.3 601 171.7 601 128.8 601C86 601 43 601 21.5 601L0 601Z" fill="#bee3db" stroke-linecap="round" stroke-linejoin="miter"></path></svg>