<svg id="visual" viewBox="0 0 900 600" width="900" height="600" xmlns="http://www.w3.org/2000/svg" xmlns:xlink="http://www.w3.org/1999/xlink" version="1.1"><path d="M0 557L30 545.5C60 534 120 511 180 515.2C240 519.3 300 550.7 360 557.2C420 563.7 480 545.3 540 546.7C600 548 660 569 720 567.3C780 565.7 840 541.3 870 529.2L900 517L900 601L870 601C840 601 780 601 720 601C660 601 600 601 540 601C480 601 420 601 360 601C300 601 240 601 180 601C120 601 60 601 30 601L0 601Z" fill="#555b6e" stroke-linecap="round" stroke-linejoin="miter"></path></svg>